<svg 
 xmlns="http://www.w3.org/2000/svg"
 xmlns:xlink="http://www.w3.org/1999/xlink"
 width="284px" height="303px">
<defs>
<linearGradient id="PSgrad_0" x1="0%" x2="0%" y1="100%" y2="0%">
  <stop offset="0%" stop-color="rgb(0,199,9)" stop-opacity="1" />
  <stop offset="100%" stop-color="rgb(0,129,124)" stop-opacity="1" />
</linearGradient>

</defs>
<path fill-rule="evenodd"  fill="rgb(255, 255, 255)"
 d="M118.612,112.460 C90.721,92.631 53.462,74.308 4.421,58.609 C20.272,10.213 78.373,-15.322 126.250,12.320 L230.657,72.599 C185.530,84.155 148.613,97.642 118.612,112.460 ZM94.214,125.678 C36.240,160.199 10.539,200.431 2.937,239.807 C1.196,233.055 0.250,225.909 0.250,218.434 L0.250,85.066 C0.250,79.693 0.743,74.491 1.662,69.480 C32.994,83.691 65.953,102.193 94.214,125.678 ZM25.528,278.559 C30.654,219.930 66.847,175.092 111.777,141.571 C144.991,174.440 168.254,215.733 168.252,266.930 L126.250,291.180 C91.330,311.341 50.968,303.213 25.528,278.559 ZM135.317,125.453 C169.785,103.752 206.867,87.849 237.898,76.780 L241.750,79.004 C297.750,111.335 297.750,192.165 241.750,224.496 L192.285,253.055 C195.553,211.324 182.788,165.904 135.317,125.453 Z"/>
<path fill="url(#PSgrad_0)"
 d="M118.612,112.460 C90.721,92.631 53.462,74.308 4.421,58.609 C20.272,10.213 78.373,-15.322 126.250,12.320 L230.657,72.599 C185.530,84.155 148.613,97.642 118.612,112.460 ZM94.214,125.678 C36.240,160.199 10.539,200.431 2.937,239.807 C1.196,233.055 0.250,225.909 0.250,218.434 L0.250,85.066 C0.250,79.693 0.743,74.491 1.662,69.480 C32.994,83.691 65.953,102.193 94.214,125.678 ZM25.528,278.559 C30.654,219.930 66.847,175.092 111.777,141.571 C144.991,174.440 168.254,215.733 168.252,266.930 L126.250,291.180 C91.330,311.341 50.968,303.213 25.528,278.559 ZM135.317,125.453 C169.785,103.752 206.867,87.849 237.898,76.780 L241.750,79.004 C297.750,111.335 297.750,192.165 241.750,224.496 L192.285,253.055 C195.553,211.324 182.788,165.904 135.317,125.453 Z"/>
</svg>